<mxfile host="65bd71144e">
    <diagram id="Ky6lZHeROI436pa8iHTL" name="Page-1">
        <mxGraphModel dx="678" dy="541" grid="1" gridSize="10" guides="1" tooltips="1" connect="1" arrows="1" fold="1" page="1" pageScale="1" pageWidth="850" pageHeight="1100" math="0" shadow="0">
            <root>
                <mxCell id="0"/>
                <mxCell id="1" parent="0"/>
                <mxCell id="6" style="edgeStyle=none;html=1;exitX=0.5;exitY=1;exitDx=0;exitDy=0;entryX=0.5;entryY=0;entryDx=0;entryDy=0;fontSize=14;" edge="1" parent="1" source="2" target="4">
                    <mxGeometry relative="1" as="geometry"/>
                </mxCell>
                <mxCell id="7" style="edgeStyle=none;html=1;exitX=0.5;exitY=1;exitDx=0;exitDy=0;entryX=0.5;entryY=0;entryDx=0;entryDy=0;fontSize=14;" edge="1" parent="1" source="2" target="5">
                    <mxGeometry relative="1" as="geometry"/>
                </mxCell>
                <mxCell id="2" value="&lt;font style=&quot;font-size: 14px;&quot;&gt;App&lt;/font&gt;" style="rounded=1;whiteSpace=wrap;html=1;" vertex="1" parent="1">
                    <mxGeometry x="340" y="73" width="120" height="40" as="geometry"/>
                </mxCell>
                <mxCell id="14" style="edgeStyle=none;html=1;exitX=0.5;exitY=1;exitDx=0;exitDy=0;entryX=0.5;entryY=0;entryDx=0;entryDy=0;fontSize=12;" edge="1" parent="1" source="4" target="13">
                    <mxGeometry relative="1" as="geometry"/>
                </mxCell>
                <mxCell id="4" value="&lt;font style=&quot;font-size: 14px;&quot;&gt;List&lt;/font&gt;" style="rounded=1;whiteSpace=wrap;html=1;" vertex="1" parent="1">
                    <mxGeometry x="440" y="220" width="120" height="40" as="geometry"/>
                </mxCell>
                <mxCell id="5" value="&lt;font style=&quot;font-size: 14px;&quot;&gt;Input&lt;/font&gt;" style="rounded=1;whiteSpace=wrap;html=1;" vertex="1" parent="1">
                    <mxGeometry x="250" y="220" width="120" height="40" as="geometry"/>
                </mxCell>
                <mxCell id="8" value="&lt;font style=&quot;font-size: 12px;&quot;&gt;const [toDoList, setToDoList] = useState (&quot;&quot;)&lt;/font&gt;" style="text;html=1;strokeColor=none;fillColor=none;align=center;verticalAlign=middle;whiteSpace=wrap;rounded=0;fontSize=14;" vertex="1" parent="1">
                    <mxGeometry x="410" y="30" width="350" height="20" as="geometry"/>
                </mxCell>
                <mxCell id="9" value="&lt;ul style=&quot;margin-top: 0px; margin-bottom: 0.7em; position: relative; color: rgb(212, 212, 212); font-family: -apple-system, BlinkMacSystemFont, &amp;quot;Segoe WPC&amp;quot;, &amp;quot;Segoe UI&amp;quot;, system-ui, Ubuntu, &amp;quot;Droid Sans&amp;quot;, sans-serif; text-align: start;&quot; dir=&quot;auto&quot; class=&quot;code-line&quot; data-line=&quot;52&quot;&gt;&lt;li style=&quot;position: relative;&quot; dir=&quot;auto&quot; class=&quot;code-line&quot; data-line=&quot;52&quot;&gt;&lt;font style=&quot;font-size: 12px;&quot;&gt;add item to list&lt;/font&gt;&lt;/li&gt;&lt;li style=&quot;position: relative;&quot; dir=&quot;auto&quot; class=&quot;code-line&quot; data-line=&quot;53&quot;&gt;&lt;font style=&quot;font-size: 12px;&quot;&gt;remove item from list&lt;/font&gt;&lt;/li&gt;&lt;li style=&quot;position: relative;&quot; dir=&quot;auto&quot; class=&quot;code-line&quot; data-line=&quot;54&quot;&gt;&lt;font style=&quot;font-size: 12px;&quot;&gt;render an Input and List&lt;/font&gt;&lt;/li&gt;&lt;/ul&gt;" style="text;html=1;strokeColor=none;fillColor=none;align=center;verticalAlign=middle;whiteSpace=wrap;rounded=0;fontSize=14;" vertex="1" parent="1">
                    <mxGeometry x="440" y="58" width="180" height="70" as="geometry"/>
                </mxCell>
                <mxCell id="10" value="&lt;span style=&quot;color: rgb(240, 240, 240); font-family: Helvetica; font-style: normal; font-variant-ligatures: normal; font-variant-caps: normal; font-weight: 400; letter-spacing: normal; orphans: 2; text-align: center; text-indent: 0px; text-transform: none; widows: 2; word-spacing: 0px; -webkit-text-stroke-width: 0px; background-color: rgb(42, 37, 47); text-decoration-thickness: initial; text-decoration-style: initial; text-decoration-color: initial; float: none; display: inline !important;&quot;&gt;const [text, setText] = useState (&quot;&quot;)&lt;br&gt;&lt;br&gt;props: add function&lt;br&gt;&lt;br&gt;&lt;ul style=&quot;margin-top: 0px; margin-bottom: 0.7em; position: relative; color: rgb(212, 212, 212); font-family: -apple-system, BlinkMacSystemFont, &amp;quot;Segoe WPC&amp;quot;, &amp;quot;Segoe UI&amp;quot;, system-ui, Ubuntu, &amp;quot;Droid Sans&amp;quot;, sans-serif; text-align: start;&quot; dir=&quot;auto&quot; class=&quot;code-line&quot; data-line=&quot;68&quot;&gt;&lt;li style=&quot;position: relative;&quot; dir=&quot;auto&quot; class=&quot;code-line&quot; data-line=&quot;68&quot;&gt;&lt;font style=&quot;font-size: 12px;&quot;&gt;render an input field and a button&lt;/font&gt;&lt;/li&gt;&lt;li style=&quot;position: relative;&quot; dir=&quot;auto&quot; class=&quot;code-line&quot; data-line=&quot;69&quot;&gt;&lt;font style=&quot;font-size: 12px;&quot;&gt;change of input text will update state of this component&lt;/font&gt;&lt;/li&gt;&lt;ul&gt;&lt;li style=&quot;position: relative;&quot; dir=&quot;auto&quot; class=&quot;code-line&quot; data-line=&quot;69&quot;&gt;onChange&lt;/li&gt;&lt;/ul&gt;&lt;li style=&quot;position: relative;&quot; dir=&quot;auto&quot; class=&quot;code-line&quot; data-line=&quot;69&quot;&gt;button click will call the add function from props with value of input&lt;br&gt;&lt;/li&gt;&lt;/ul&gt;&lt;/span&gt;" style="text;whiteSpace=wrap;html=1;fontSize=12;" vertex="1" parent="1">
                    <mxGeometry x="30" y="150" width="210" height="220" as="geometry"/>
                </mxCell>
                <mxCell id="11" value="&lt;p style=&quot;margin-top: 0px; margin-bottom: 0.7em; position: relative; color: rgb(212, 212, 212); font-family: -apple-system, BlinkMacSystemFont, &amp;quot;Segoe WPC&amp;quot;, &amp;quot;Segoe UI&amp;quot;, system-ui, Ubuntu, &amp;quot;Droid Sans&amp;quot;, sans-serif; font-variant-ligatures: normal; font-variant-caps: normal; font-weight: 400; letter-spacing: normal; orphans: 2; text-align: start; text-indent: 0px; text-transform: none; widows: 2; word-spacing: 0px; -webkit-text-stroke-width: 0px; text-decoration-thickness: initial; text-decoration-style: initial; text-decoration-color: initial;&quot; dir=&quot;auto&quot; class=&quot;code-line&quot; data-line=&quot;74&quot;&gt;&lt;font style=&quot;font-size: 12px;&quot;&gt;props:&amp;nbsp;&lt;/font&gt;&lt;span style=&quot;background-color: initial;&quot;&gt;array of to do.&amp;nbsp;&lt;/span&gt;&lt;span style=&quot;background-color: initial;&quot;&gt;delete function&lt;/span&gt;&lt;/p&gt;&lt;p style=&quot;margin-top: 0px; margin-bottom: 0.7em; position: relative; color: rgb(212, 212, 212); font-family: -apple-system, BlinkMacSystemFont, &amp;quot;Segoe WPC&amp;quot;, &amp;quot;Segoe UI&amp;quot;, system-ui, Ubuntu, &amp;quot;Droid Sans&amp;quot;, sans-serif; font-variant-ligatures: normal; font-variant-caps: normal; font-weight: 400; letter-spacing: normal; orphans: 2; text-align: start; text-indent: 0px; text-transform: none; widows: 2; word-spacing: 0px; -webkit-text-stroke-width: 0px; text-decoration-thickness: initial; text-decoration-style: initial; text-decoration-color: initial;&quot; dir=&quot;auto&quot; class=&quot;code-line&quot; data-line=&quot;79&quot;&gt;&lt;br&gt;&lt;/p&gt;&lt;ul style=&quot;margin-top: 0px; margin-bottom: 0.7em; position: relative; color: rgb(212, 212, 212); font-family: -apple-system, BlinkMacSystemFont, &amp;quot;Segoe WPC&amp;quot;, &amp;quot;Segoe UI&amp;quot;, system-ui, Ubuntu, &amp;quot;Droid Sans&amp;quot;, sans-serif; font-style: normal; font-variant-ligatures: normal; font-variant-caps: normal; font-weight: 400; letter-spacing: normal; orphans: 2; text-align: start; text-indent: 0px; text-transform: none; widows: 2; word-spacing: 0px; -webkit-text-stroke-width: 0px; text-decoration-thickness: initial; text-decoration-style: initial; text-decoration-color: initial;&quot; dir=&quot;auto&quot; class=&quot;code-line&quot; data-line=&quot;81&quot;&gt;&lt;li style=&quot;position: relative;&quot; dir=&quot;auto&quot; class=&quot;code-line&quot; data-line=&quot;81&quot;&gt;&lt;font style=&quot;font-size: 12px;&quot;&gt;render an array of ListItems in a&amp;nbsp;&lt;code style=&quot;color: var(--vscode-textPreformat-foreground); font-family: var(--vscode-editor-font-family, &amp;quot;SF Mono&amp;quot;, Monaco, Menlo, Consolas, &amp;quot;Ubuntu Mono&amp;quot;, &amp;quot;Liberation Mono&amp;quot;, &amp;quot;DejaVu Sans Mono&amp;quot;, &amp;quot;Courier New&amp;quot;, monospace); line-height: 1.357em;&quot;&gt;ul&lt;/code&gt;&lt;/font&gt;&lt;/li&gt;&lt;li style=&quot;position: relative;&quot; dir=&quot;auto&quot; class=&quot;code-line&quot; data-line=&quot;81&quot;&gt;&lt;font style=&quot;font-size: 12px;&quot;&gt;&lt;code style=&quot;color: var(--vscode-textPreformat-foreground); font-family: var(--vscode-editor-font-family, &amp;quot;SF Mono&amp;quot;, Monaco, Menlo, Consolas, &amp;quot;Ubuntu Mono&amp;quot;, &amp;quot;Liberation Mono&amp;quot;, &amp;quot;DejaVu Sans Mono&amp;quot;, &amp;quot;Courier New&amp;quot;, monospace); line-height: 1.357em;&quot;&gt;.maps()&lt;span style=&quot;white-space: pre;&quot;&gt;&#9;&lt;/span&gt;&lt;br&gt;&lt;/code&gt;&lt;/font&gt;&lt;/li&gt;&lt;/ul&gt;" style="text;whiteSpace=wrap;html=1;fontSize=12;" vertex="1" parent="1">
                    <mxGeometry x="570" y="190" width="240" height="170" as="geometry"/>
                </mxCell>
                <mxCell id="13" value="&lt;font style=&quot;font-size: 14px;&quot;&gt;List Item&lt;/font&gt;" style="rounded=1;whiteSpace=wrap;html=1;" vertex="1" parent="1">
                    <mxGeometry x="440" y="360" width="120" height="40" as="geometry"/>
                </mxCell>
                <mxCell id="15" value="&lt;p style=&quot;margin-top: 0px; margin-bottom: 0.7em; position: relative; color: rgb(212, 212, 212); font-family: -apple-system, BlinkMacSystemFont, &amp;quot;Segoe WPC&amp;quot;, &amp;quot;Segoe UI&amp;quot;, system-ui, Ubuntu, &amp;quot;Droid Sans&amp;quot;, sans-serif; font-variant-ligatures: normal; font-variant-caps: normal; font-weight: 400; letter-spacing: normal; orphans: 2; text-align: start; text-indent: 0px; text-transform: none; widows: 2; word-spacing: 0px; -webkit-text-stroke-width: 0px; text-decoration-thickness: initial; text-decoration-style: initial; text-decoration-color: initial;&quot; dir=&quot;auto&quot; class=&quot;code-line&quot; data-line=&quot;85&quot;&gt;&lt;font style=&quot;font-size: 12px;&quot;&gt;props:&lt;/font&gt;&lt;/p&gt;&lt;ul style=&quot;margin-top: 0px; margin-bottom: 0.7em; position: relative; color: rgb(212, 212, 212); font-family: -apple-system, BlinkMacSystemFont, &amp;quot;Segoe WPC&amp;quot;, &amp;quot;Segoe UI&amp;quot;, system-ui, Ubuntu, &amp;quot;Droid Sans&amp;quot;, sans-serif; font-variant-ligatures: normal; font-variant-caps: normal; font-weight: 400; letter-spacing: normal; orphans: 2; text-align: start; text-indent: 0px; text-transform: none; widows: 2; word-spacing: 0px; -webkit-text-stroke-width: 0px; text-decoration-thickness: initial; text-decoration-style: initial; text-decoration-color: initial;&quot; dir=&quot;auto&quot; class=&quot;code-line&quot; data-line=&quot;87&quot;&gt;&lt;li style=&quot;position: relative;&quot; dir=&quot;auto&quot; class=&quot;code-line&quot; data-line=&quot;87&quot;&gt;&lt;font style=&quot;font-size: 12px;&quot;&gt;text (not the same as state)&lt;/font&gt;&lt;/li&gt;&lt;li style=&quot;font-style: normal; position: relative;&quot; dir=&quot;auto&quot; class=&quot;code-line&quot; data-line=&quot;88&quot;&gt;&lt;font style=&quot;font-size: 12px;&quot;&gt;delete function&lt;/font&gt;&lt;/li&gt;&lt;/ul&gt;&lt;p style=&quot;margin-top: 0px; margin-bottom: 0.7em; position: relative; color: rgb(212, 212, 212); font-family: -apple-system, BlinkMacSystemFont, &amp;quot;Segoe WPC&amp;quot;, &amp;quot;Segoe UI&amp;quot;, system-ui, Ubuntu, &amp;quot;Droid Sans&amp;quot;, sans-serif; font-variant-ligatures: normal; font-variant-caps: normal; font-weight: 400; letter-spacing: normal; orphans: 2; text-align: start; text-indent: 0px; text-transform: none; widows: 2; word-spacing: 0px; -webkit-text-stroke-width: 0px; text-decoration-thickness: initial; text-decoration-style: initial; text-decoration-color: initial;&quot; dir=&quot;auto&quot; class=&quot;code-line&quot; data-line=&quot;90&quot;&gt;&lt;font style=&quot;font-size: 12px;&quot;&gt;behaviour:&lt;/font&gt;&lt;/p&gt;&lt;ul style=&quot;margin-top: 0px; margin-bottom: 0.7em; position: relative; color: rgb(212, 212, 212); font-family: -apple-system, BlinkMacSystemFont, &amp;quot;Segoe WPC&amp;quot;, &amp;quot;Segoe UI&amp;quot;, system-ui, Ubuntu, &amp;quot;Droid Sans&amp;quot;, sans-serif; font-variant-ligatures: normal; font-variant-caps: normal; font-weight: 400; letter-spacing: normal; orphans: 2; text-align: start; text-indent: 0px; text-transform: none; widows: 2; word-spacing: 0px; -webkit-text-stroke-width: 0px; text-decoration-thickness: initial; text-decoration-style: initial; text-decoration-color: initial;&quot; dir=&quot;auto&quot; class=&quot;code-line&quot; data-line=&quot;92&quot;&gt;&lt;li style=&quot;position: relative;&quot; dir=&quot;auto&quot; class=&quot;code-line&quot; data-line=&quot;92&quot;&gt;&lt;font style=&quot;font-size: 12px;&quot;&gt;render the text and a button (JSX)&lt;/font&gt;&lt;/li&gt;&lt;li style=&quot;font-style: normal; position: relative;&quot; dir=&quot;auto&quot; class=&quot;code-line&quot; data-line=&quot;93&quot;&gt;&lt;font style=&quot;font-size: 12px;&quot;&gt;when the button is clicked call the delete function to delete item at this index&lt;/font&gt;&lt;/li&gt;&lt;/ul&gt;" style="text;whiteSpace=wrap;html=1;fontSize=12;" vertex="1" parent="1">
                    <mxGeometry x="570" y="340" width="220" height="190" as="geometry"/>
                </mxCell>
            </root>
        </mxGraphModel>
    </diagram>
</mxfile>